HIERARCHY
ROOT simHips
{
  OFFSET 92.8171 99.8027 30.6099
  CHANNELS 6 Xposition Yposition Zposition Zrotation Xrotation Yrotation
  JOINT simSpine
  {
    OFFSET -0.000355721 21.3001 -0.016921
    CHANNELS 3 Zrotation Xrotation Yrotation
    JOINT simLeftArm
    {
      OFFSET 13.5181 21.3012 0
      CHANNELS 3 Zrotation Xrotation Yrotation
      JOINT simLeftForeArm
      {
        OFFSET 24.5783 0 0
        CHANNELS 3 Zrotation Xrotation Yrotation
        JOINT simLeftHand
        {
          OFFSET 24.5783 0 0
          CHANNELS 3 Zrotation Xrotation Yrotation
          End Site
          {
            OFFSET 7.32568 1.52588e-05 0.0169305
          }
        }
      }
    }
    JOINT simHead
    {
      OFFSET 0 27.4458 -0.00489235
      CHANNELS 3 Zrotation Xrotation Yrotation
      End Site
      {
        OFFSET 0 0 0
      }
    }
    JOINT simRightArm
    {
      OFFSET -13.5174 21.3012 0
      CHANNELS 3 Zrotation Xrotation Yrotation
      JOINT simRightForeArm
      {
        OFFSET -24.5783 0 0
        CHANNELS 3 Zrotation Xrotation Yrotation
        JOINT simRightHand
        {
          OFFSET -24.5783 0 0
          CHANNELS 3 Zrotation Xrotation Yrotation
          End Site
          {
            OFFSET -7.32568 1.52588e-05 0.0169305
          }
        }
      }
    }
  }
  JOINT simRightUpLeg
  {
    OFFSET -8.44614 -9.41038 0.835684
    CHANNELS 3 Zrotation Xrotation Yrotation
    JOINT simRightLeg
    {
      OFFSET 0 -40.9639 0
      CHANNELS 3 Zrotation Xrotation Yrotation
      JOINT simRightFoot
      {
        OFFSET 0 -40.9639 0
        CHANNELS 3 Zrotation Xrotation Yrotation
        End Site
        {
          OFFSET 0.50614 -9.67405 14.6709
        }
      }
    }
  }
  JOINT simLeftUpLeg
  {
    OFFSET 8.44614 -9.41038 0.835684
    CHANNELS 3 Zrotation Xrotation Yrotation
    JOINT simLeftLeg
    {
      OFFSET 0 -40.9639 0
      CHANNELS 3 Zrotation Xrotation Yrotation
      JOINT simLeftFoot
      {
        OFFSET 0 -40.9639 0
        CHANNELS 3 Zrotation Xrotation Yrotation
        End Site
        {
          OFFSET -0.50614 -9.67405 14.6709
        }
      }
    }
  }
}
MOTION
Frames:	22
Frame Time:	0.0333333
92.8171 99.8027 30.6099 -0.00699316 0.0506234 -0.361322 0.0983895 0.0718649 0.0156653 0.0576662 0.019898 -0.0918334 -0.00965939 -0.00416772 2.42903e-05 -0.0220833 0.0213903 -0.116455 0.0982865 -0.0450828 -0.440252 0.0410494 0.0748909 0.198682 -0.0061211 -0.00250075 0.0114473 0.0335528 0.0152598 0.0215113 0.68927 0.664362 0.20278 -0.00754379 0.0853667 -0.0123687 -0.442852 -0.754277 0.111451 -1.52509 0.11813 0.347279 0.0172709 1.8702 0.00586108 1.5297 -1.99777 0.0598439 
92.838 99.8027 30.6047 -0.0070447 0.0506237 -0.302993 0.112079 0.00667456 0.0547734 -0.00336875 0.0607292 -0.0681174 -0.0158777 -0.00416772 -0.000115918 -0.0366424 0.0925738 -0.212827 0.0380177 -0.049393 -0.326596 -0.00206132 0.0511351 0.142293 -0.0061211 -0.00250075 0.0114473 -0.00277686 0.0129659 0.0215113 0.689577 0.658447 0.177887 -0.00754833 0.0643063 -0.0123687 -0.552984 -0.777403 0.126041 -1.52463 0.0882478 0.168281 0.0182563 1.91647 0.00586123 1.54989 -2.01367 0.18393 
92.826 99.8027 30.5794 0.00334421 0.0603596 -0.196068 0.0624185 -0.0193196 0.02785 -0.022609 0.0440098 -0.0148683 0.00871699 -0.00416772 -0.0219312 0.00503076 0.0369167 0.00439106 0.028401 -0.0260722 -0.173212 -0.00503868 0.0801402 0.109454 -0.0100864 -0.00250075 0.0195416 0.00529246 -0.00772435 0.0218197 0.690269 0.717019 0.108123 -0.00757133 -0.0422139 -0.0123687 -0.460766 -0.668849 0.0566738 -1.51477 0.0609291 0.197066 -0.0119221 1.8951 0.00586116 1.50942 -2.00166 0.0479165 
92.8217 99.7997 30.5594 0.00249428 0.0175078 -0.0641615 0.0180126 0.0107492 0.0112262 -0.0054264 0.011485 -0.0359553 0.0183749 -0.00416772 -0.0475714 -0.0738466 -0.0489152 0.186349 0.0519809 -0.0524318 -0.0756018 -0.00566319 0.0347294 0.0145493 0.00476356 -0.00250075 -5.81837e-05 -0.010466 -0.02972 0.0667691 0.691338 0.745173 0.0218145 -0.00857941 -0.0271189 -0.0123687 -0.494593 -0.680387 0.0109518 -1.52138 0.122006 0.0118941 0.0180871 1.83267 0.00586095 1.49584 -1.95466 0.0913962 
92.8227 99.797 30.5315 0.000528113 -0.00384362 0.01434 -0.00720125 -0.00530457 0.00175866 0.00148862 0.00342379 0.0120646 -0.00380527 -0.00416772 -9.42036e-05 0.021221 0.00786458 -0.0333335 -0.0188282 0.0152733 0.0227921 -0.00522249 -0.00398202 -0.00441399 -0.000778861 -0.00250075 0.0015596 0.0101144 0.0108401 -0.0132555 0.68558 0.714225 -0.0114976 0.00242479 0.0288447 -0.0123687 -0.720047 -0.748972 -0.00890671 -1.51014 0.131439 -0.00199129 -0.00339682 1.82016 0.00586091 1.51377 -1.95157 0.0325507 
92.8361 99.7948 30.4967 0.0134128 -0.0110932 0.0354124 -0.0515774 -0.0243926 0.0485711 0.00771765 0.0645478 0.0371954 0.0100042 -0.00416772 -0.0263432 0.0216897 -0.0720806 0.187663 -0.0742943 0.0281049 0.0950895 -0.00290232 0.0361217 -0.0449622 0.00998175 -0.00250075 0.00229038 0.0890883 0.0404541 0.0443515 0.667503 0.688981 -0.0443041 0.00433852 0.0600324 -0.0123687 -0.53362 -0.702297 -0.0295042 -1.54266 0.100486 -0.247224 0.0180581 1.84242 0.00586098 1.4998 -1.92895 0.245526 
92.8426 99.793 30.4718 0.0217142 -0.0148821 0.112938 -0.102459 -0.0372009 0.0472216 0.0347075 -0.0332797 0.0350524 -0.0244992 -0.00416772 -8.94903e-05 0.0573779 0.165061 0.0539352 -0.104418 -0.00775209 0.168369 0.00349705 0.0817408 -0.138847 0.00969467 -0.00250075 0.0029175 0.0669677 0.0409639 -0.00690928 0.650109 0.707628 -0.052395 0.0125168 0.0373948 -0.0123687 -0.498716 -0.714398 -0.0879716 -1.55231 0.0784949 -0.245017 0.0155732 1.85768 0.00586104 1.46285 -1.95223 0.159611 
92.8577 99.791 30.4404 -0.0046182 -0.0423948 0.205029 -0.0969696 0.00922485 0.0389714 0.00832455 0.0248061 0.0540284 0.0172697 -0.00416772 -0.0454417 -0.0343306 -0.107545 0.331292 -0.140446 -0.07025 0.226143 0.0133693 0.00889834 -0.253681 -0.00151931 -0.00250075 0.00344632 0.004385 0.0270204 0.00242819 0.662845 0.670094 -0.203798 0.0180627 0.145455 -0.0123688 -0.613122 -0.762487 -0.0163058 -1.52643 0.0670704 -0.328154 0.0148738 1.87029 0.00586108 1.42345 -1.97143 0.136494 
92.8602 99.7897 30.4107 -0.0226437 0.00348086 0.332618 -0.118913 -0.0572712 -0.0179717 0.0384285 0.104306 0.0767654 -0.00199401 -0.00416772 2.6606e-05 -0.0507666 -0.0462699 0.146605 -0.0883753 -0.0439335 0.269998 0.0393539 0.0316082 -0.315581 0.0195248 -0.00250075 0.00388217 0.0159701 0.0359384 -0.00206623 0.682444 0.599633 -0.334049 0.0176142 0.160766 -0.0123688 -0.656211 -0.75839 -0.0190033 -1.51396 0.0181275 -0.438305 0.0264656 1.82978 5.23223e-06 1.40642 -1.95644 0.116396 
92.8775 99.7884 30.378 -0.0298649 0.046307 0.400785 -0.159145 -0.0843247 -0.036131 0.0644992 0.0634738 0.0833583 0.00249287 -0.00416772 -0.00579437 -0.0316296 0.0303099 0.162766 0.0380614 -0.103765 0.274932 0.0996193 -0.0320412 -0.389584 0.0257548 -0.00250075 0.0042304 0.013257 0.0476346 -0.0283549 0.679085 0.504289 -0.357018 0.0142842 0.183232 -0.0123688 -0.614198 -0.718923 -0.0583208 -1.49311 -0.12299 -0.493757 -0.0281531 1.96941 -0.0151845 1.43617 -2.02307 0.121809 
92.8976 99.787 30.3566 -0.0434057 0.0334173 0.513097 -0.163914 -0.0653869 -0.0583954 0.0701488 -0.0308395 0.0482912 0.00982432 -0.00416772 -0.0256263 0.00352599 -0.0399849 0.0891776 0.0348512 -0.104559 0.207211 0.115223 -0.067337 -0.459071 0.0253817 -0.00250075 0.00449634 0.00776991 0.00780386 -0.0414492 0.680744 0.517828 -0.430892 0.0117661 0.187311 -0.0123688 -0.600897 -0.725842 -0.110385 -1.51216 -0.0681066 -0.634587 0.0151344 1.84362 -0.0245658 1.38818 -1.97017 0.139702 
92.9279 99.7859 30.3238 -0.0383372 0.000797363 0.571857 -0.188282 -0.0141493 -0.0765057 0.0593133 -0.0269894 0.0431381 0.0132184 -0.00416772 -0.0341863 -0.0229007 -0.104368 0.203193 0.0712688 -0.174669 0.180968 0.125065 -0.113032 -0.498892 0.0302864 -0.00250075 0.00468536 -0.0261274 -0.0732406 -0.0230676 0.657274 0.533177 -0.438813 0.0137631 0.192715 -0.0123688 -0.560019 -0.706323 -0.17207 -1.52738 -0.0483466 -0.659387 0.00784349 1.81998 -0.0295946 1.38231 -1.93264 0.0803486 
92.9515 99.7853 30.2949 -0.0548286 -0.0210188 0.603845 -0.189768 0.0140169 -0.0694943 0.0457436 -0.0283207 0.0486926 -0.0149055 -0.00416772 -6.92402e-05 0.0175851 0.00537218 0.13556 0.0312494 -0.219191 0.127995 0.14496 -0.0879454 -0.514819 0.0353106 -0.00250075 0.00480278 -0.00512051 -0.0162521 -0.0216403 0.655606 0.556567 -0.481659 0.025816 0.207648 -0.0123688 -0.680803 -0.73037 -0.145593 -1.53894 -0.0836153 -0.693755 0.0222978 1.89894 -0.03081 1.41579 -1.95541 0.0972236 
92.987 99.785 30.2747 -0.0480336 -0.0497669 0.602381 -0.197298 0.0334991 -0.0377638 0.0116869 0.0113873 0.0640097 -0.0206076 -0.00539765 -2.7522e-06 0.058898 -0.0681095 0.074375 -0.0206987 -0.26869 0.147162 0.167986 -0.0407141 -0.510877 0.0354157 -0.00250075 0.00485396 0.0149626 -0.0552634 -0.0118566 0.625877 0.60063 -0.496895 0.0356017 0.197973 -0.0123688 -0.615499 -0.747853 -0.143365 -1.56605 -0.0445554 -0.65626 0.0220581 1.85161 -0.0303816 1.4276 -1.91746 0.0585911 
93.0166 99.7849 30.2527 -0.0491289 -0.0835764 0.580038 -0.211913 0.0769183 -0.00145637 0.0104695 -0.120199 0.0412372 -0.0405119 -0.00631619 1.99145e-05 -0.0409457 0.0102908 0.0689636 -0.00586567 -0.280759 0.209393 0.212188 -0.0175708 -0.49215 0.043805 -0.00250075 0.00484423 0.00224953 -0.0881627 -0.0473399 0.609213 0.543127 -0.463955 0.0423291 0.274905 -0.0123689 -0.540209 -0.707712 -0.170587 -1.58636 -0.0414153 -0.673261 0.023609 1.90211 -0.0291794 1.43169 -1.94642 0.0982098 
93.0518 99.7851 30.2293 -0.0626364 -0.108863 0.545176 -0.198553 0.114482 0.0333761 -0.0163928 0.0210849 0.0945969 -0.021063 -0.00730327 2.60557e-05 -0.102137 -0.0840578 0.0932224 -0.0618962 -0.254452 0.277297 0.242014 0.0187137 -0.426237 0.0544248 -0.00250075 0.00477894 -0.0339775 -0.0523596 -0.0544291 0.600707 0.566144 -0.494985 0.0500668 0.271412 -0.0123689 -0.486797 -0.66673 -0.11251 -1.59668 -0.0352326 -0.685887 0.0256758 1.91332 -0.0280674 1.47048 -1.93548 0.13329 
93.0894 99.7855 30.2073 -0.0754001 -0.135706 0.527024 -0.179586 0.154201 0.0776312 -0.0422425 -0.0661522 0.051097 -0.0135711 -0.00833286 1.80839e-05 -0.116282 -0.0334851 0.274958 -0.137693 -0.212363 0.354236 0.261393 0.0487922 -0.415346 0.0411628 -0.00250075 0.00466344 0.00943872 -0.0936345 -0.0155339 0.584973 0.556791 -0.438087 0.0457087 0.28406 -0.0123689 -0.530934 -0.67535 -0.131658 -1.61079 0.0231682 -0.701099 0.0261492 1.84737 -0.0268925 1.53111 -1.87569 0.167567 
93.1338 99.7863 30.1926 -0.0753194 -0.130328 0.486069 -0.168668 0.142465 0.134795 -0.0449322 -0.0988295 0.043794 -0.0333834 -0.00937891 -1.58808e-06 -0.0673026 0.0832743 0.11534 -0.18986 -0.0818764 0.438756 0.261508 0.105996 -0.368328 0.0509468 -0.00250075 0.00450306 -0.0055597 -0.0166584 -0.0327193 0.558944 0.56221 -0.423915 0.03655 0.2498 -0.0123688 -0.460347 -0.631732 -0.126624 -1.6386 0.000666552 -0.628665 0.022824 1.85185 -0.0248849 1.5251 -1.86732 0.140949 
93.169 99.7871 30.1731 -0.0869971 -0.155681 0.48 -0.164546 0.172595 0.140039 -0.0385001 -0.0771871 0.0684458 -0.0202453 -0.0104154 -3.05478e-05 -0.0832315 -0.0146087 0.100943 -0.219985 -0.00145015 0.524646 0.283929 0.0535549 -0.307414 0.0555759 -0.00250075 0.00430315 -0.0115118 -0.0079806 0.00982405 0.545147 0.620323 -0.494752 0.0314917 0.206989 -0.0123688 -0.444168 -0.624081 -0.0421495 -1.6395 0.00243247 -0.67201 -0.00194501 1.88156 -0.022571 1.55465 -1.86623 0.185351 
93.203 99.7883 30.1613 -0.0894941 -0.148721 0.495563 -0.1696 0.16355 0.111928 -0.0181061 -0.0171965 0.0960554 0.000964921 -0.0114163 -6.63827e-05 -0.0869574 -0.08236 0.301618 -0.204688 0.0838817 0.564347 0.305096 0.0787132 -0.243739 0.0635757 -0.00250075 0.00406906 -0.0175677 0.0203237 0.00512295 0.523844 0.631632 -0.535443 0.0342662 0.183238 -0.0123688 -0.489649 -0.623938 -0.0254448 -1.65709 -0.0428013 -0.661692 -0.00689769 1.93855 -0.0200152 1.57212 -1.88393 0.155585 
93.2446 99.7893 30.1468 -0.0978801 -0.174775 0.499956 -0.160898 0.207987 0.155934 0.0222146 0.0503796 0.0712113 -0.00775272 -0.0123555 -0.00010668 -0.102733 -0.0975656 0.280343 -0.226827 0.0735406 0.522223 0.310377 0.131236 -0.278351 0.0601131 -0.00250075 0.00380613 -0.0343262 0.0935782 -0.00178987 0.506562 0.476596 -0.469059 0.0409317 0.397426 -0.012369 -0.444351 -0.625651 -0.0942122 -1.67642 -0.0476644 -0.608757 0.0010608 1.98389 -0.0172812 1.56722 -1.91457 0.1053 
93.2822 99.7907 30.1279 -0.119055 -0.175795 0.505211 -0.133281 0.240489 0.183664 0.0452211 -0.0100663 0.0598919 0.0013321 -0.013207 -0.000149028 -0.150178 -0.0921638 0.300107 -0.24797 0.0669744 0.502245 0.292272 0.161565 -0.317302 0.0388712 -0.00250075 0.00351969 -0.0119248 -0.0211789 -0.0301315 0.497596 0.472304 -0.53897 0.0467639 0.401407 -0.012369 -0.506525 -0.625428 -0.0238523 -1.67833 -0.0239837 -0.563732 -0.00968756 1.9126 -0.0144326 1.64295 -1.853 0.0572018 
